<svg xml:space="preserve" data-sanitized-enable-background="new 0 0 48 48" viewBox="0 0 48 48" y="0px" x="0px" xmlns:xlink="http://www.w3.org/1999/xlink" xmlns="http://www.w3.org/2000/svg" id="Outline" version="1.1">
<g>
	<path d="M20.625,20.625c-0.55127,0-1-0.44873-1-1c0-0.41406-0.33594-0.75-0.75-0.75s-0.75,0.33594-0.75,0.75
		c0,1.37842,1.12158,2.5,2.5,2.5s2.5-1.12158,2.5-2.5c0-0.68066-0.27344-1.29883-0.71631-1.75
		c0.44287-0.45117,0.71631-1.06934,0.71631-1.75c0-1.37842-1.12158-2.5-2.5-2.5s-2.5,1.12158-2.5,2.5
		c0,0.41406,0.33594,0.75,0.75,0.75s0.75-0.33594,0.75-0.75c0-0.55127,0.44873-1,1-1s1,0.44873,1,1s-0.44873,1-1,1
		c-0.41406,0-0.75,0.33594-0.75,0.75s0.33594,0.75,0.75,0.75c0.55127,0,1,0.44873,1,1S21.17627,20.625,20.625,20.625z"></path>
	<path d="M27.125,22.125c1.5166,0,2.75-1.2334,2.75-2.75v-3c0-1.5166-1.2334-2.75-2.75-2.75s-2.75,1.2334-2.75,2.75v3
		C24.375,20.8916,25.6084,22.125,27.125,22.125z M25.875,16.375c0-0.68945,0.56055-1.25,1.25-1.25s1.25,0.56055,1.25,1.25v3
		c0,0.68945-0.56055,1.25-1.25,1.25s-1.25-0.56055-1.25-1.25V16.375z"></path>
	<path d="M15,33.5h18c0.41406,0,0.75-0.33594,0.75-0.75S33.41406,32,33,32H15c-0.41406,0-0.75,0.33594-0.75,0.75
		S14.58594,33.5,15,33.5z"></path>
	<path d="M14.00629,9.9502c3.01758-2.15918,6.56348-3.28516,10.28955-3.2002c3.44922,0.06445,6.77002,1.14844,9.60352,3.13477
		c0.34033,0.2373,0.80664,0.15625,1.04492-0.18359c0.23779-0.33984,0.15527-0.80664-0.18359-1.04492
		c-3.0791-2.15723-6.68799-3.33594-10.4375-3.40625c-0.11279-0.00195-0.2251-0.00293-0.3374-0.00293
		c-3.9165,0-7.66211,1.20117-10.85254,3.48242c-0.33691,0.24121-0.41455,0.70996-0.17334,1.04688
		C13.20062,10.1123,13.6684,10.1875,14.00629,9.9502z"></path>
	<path d="M11.58289,31.58496c-0.39893-0.05176-0.79028,0.24359-0.84222,0.64502c-0.00043,0.0033-0.18146,1.37207-0.3158,2.38763
		c-2.42896-3.1026-3.73779-6.96313-3.67493-10.914c0.06445-3.50049,1.17139-6.854,3.2002-9.69775
		c0.24072-0.33691,0.1626-0.80566-0.1748-1.0459c-0.13184-0.09473-0.28418-0.13965-0.43506-0.13965
		c-0.23389,0-0.46484,0.10938-0.61084,0.31445c-2.20605,3.0918-3.40918,6.7373-3.47949,10.54346
		c-0.06818,4.3017,1.35822,8.5033,4.00525,11.87842l-2.43494-0.32275c-0.41895-0.05664-0.7876,0.23438-0.84229,0.64502
		c-0.0542,0.41064,0.23438,0.7876,0.64502,0.84229c0,0,4.19275,0.55536,4.20599,0.55713
		c0.40369,0.05347,0.78851-0.24335,0.84235-0.64502l0.55664-4.20605C12.28217,32.0166,11.9931,31.63965,11.58289,31.58496z"></path>
	<circle r="0.75" cy="11.27222" cx="11.27203"></circle>
	<path d="M17.5,27.25v-1c0-1.5166-1.2334-2.75-2.75-2.75h-1c-0.41406,0-0.75,0.33594-0.75,0.75v5c0,0.41406,0.33594,0.75,0.75,0.75
		h1C16.2666,30,17.5,28.7666,17.5,27.25z M14.5,25h0.25c0.68945,0,1.25,0.56055,1.25,1.25v1c0,0.68945-0.56055,1.25-1.25,1.25H14.5
		V25z"></path>
	<path d="M20.55371,23.97168l-2,5c-0.15381,0.38477,0.0332,0.82129,0.41797,0.97461s0.82129-0.0332,0.97461-0.41797l0.22815-0.57031
		h2.15112c0,0,0.22797,0.56989,0.22815,0.57031c0.15399,0.38501,0.59222,0.56927,0.97461,0.41797
		c0.38477-0.15332,0.57178-0.58984,0.41797-0.97461l-2-5C21.71875,23.40137,20.78125,23.40137,20.55371,23.97168z
		 M20.77454,27.45801L21.25,26.26953l0.47546,1.18848H20.77454z"></path>
	<path d="M24.16455,24.71875L26,27.01361V29.25c0,0.41406,0.33594,0.75,0.75,0.75s0.75-0.33594,0.75-0.75v-2.23633l1.83594-2.29492
		c0.25879-0.32373,0.20605-0.79541-0.11719-1.0542c-0.32227-0.25781-0.79395-0.20703-1.05469,0.1167L26.75,25.5498l-1.41406-1.76855
		c-0.25879-0.32275-0.729-0.37598-1.05469-0.1167C23.95801,23.92334,23.90576,24.39502,24.16455,24.71875z"></path>
	<path d="M32.41211,25H34.25c0.41406,0,0.75-0.33594,0.75-0.75s-0.33594-0.75-0.75-0.75h-1.83789
		C31.35742,23.5,30.5,24.35791,30.5,25.41211c0,0.82422,0.52539,1.55371,1.30762,1.81348l1.41016,0.47168
		C33.38672,27.75293,33.5,27.91016,33.5,28.08789c0,0.22754-0.18457,0.41211-0.41211,0.41211H31.25
		c-0.41406,0-0.75,0.33594-0.75,0.75S30.83594,30,31.25,30h1.83789C34.14258,30,35,29.14258,35,28.08789
		c0-0.82422-0.52539-1.55371-1.30762-1.81348l-1.41016-0.47168C32.11328,25.74707,32,25.58984,32,25.41211
		C32,25.18457,32.18457,25,32.41211,25z"></path>
	<path d="M38.74487,12.44366l2.43475,0.32245c0.40234,0.0498,0.78711-0.23438,0.8418-0.64502s-0.23438-0.7876-0.64453-0.84229
		l-4.20605-0.55664c-0.40527-0.05322-0.78711,0.23389-0.8418,0.64502l-0.55664,4.20557
		c-0.05469,0.41064,0.23438,0.7876,0.64453,0.84229c0.40405,0.05347,0.78894-0.23901,0.8418-0.64502l0.31659-2.38837
		c2.42847,3.10419,3.73749,6.96497,3.67462,10.91473c-0.17188,9.51123-8.04199,17.11963-17.5459,16.95361
		c-3.44873-0.06445-6.77002-1.14844-9.604-3.13379c-0.33838-0.2373-0.80664-0.15527-1.04443,0.18359
		c-0.23779,0.33984-0.15527,0.80762,0.18408,1.04492c3.0791,2.15723,6.68799,3.33496,10.4375,3.40527
		c0.10889,0.00195,0.21631,0.00293,0.3252,0.00293c10.18311,0,18.56299-8.20117,18.74756-18.43115
		C42.8186,20.02161,41.39221,15.82013,38.74487,12.44366z"></path>
</g>
</svg>
