<svg xmlns="http://www.w3.org/2000/svg" fill="none" viewBox="0 0 40 40" height="40" width="40">
<g clip-path="url(#clip0_4418_7834)">
<g clip-path="url(#clip1_4418_7834)">
<path fill="#1D1D1D" d="M8.57498 11.455C8.57498 7.78504 11.4029 4.69995 15.0233 4.69995C18.6437 4.69995 21.4716 7.78503 21.4716 11.455L21.4617 28.9774C21.4617 28.9772 21.4617 28.9776 21.4617 28.9774C21.462 31.1916 23.3083 33.0333 25.6434 33.0333C27.9785 33.0333 29.825 31.1919 29.825 28.9774V23.4569C29.825 22.8309 30.3324 22.3235 30.9583 22.3235C31.5842 22.3235 32.0916 22.8309 32.0916 23.4569V28.9774C32.0916 32.4946 29.1789 35.3 25.6434 35.3C22.1077 35.3 19.195 32.4946 19.195 28.9774L19.205 11.455C19.205 11.4548 19.205 11.4552 19.205 11.455C19.2046 8.9157 17.2735 6.96662 15.0233 6.96662C12.7729 6.96662 10.8416 8.91537 10.8416 11.455V23.4569C10.8416 24.0828 10.3342 24.5902 9.70832 24.5902C9.08239 24.5902 8.57498 24.0828 8.57498 23.4569V11.455Z" clip-rule="evenodd" fill-rule="evenodd"></path>
<path fill="#1D1D1D" d="M30.2208 20.5563C30.6452 20.1925 31.2715 20.1925 31.6959 20.5563L36.6542 24.8063C37.1295 25.2136 37.1845 25.9291 36.7772 26.4043C36.3698 26.8796 35.6543 26.9346 35.1791 26.5273L30.9583 22.9095L26.7376 26.5273C26.2623 26.9346 25.5468 26.8796 25.1395 26.4043C24.7322 25.9291 24.7872 25.2136 25.2624 24.8063L30.2208 20.5563Z" clip-rule="evenodd" fill-rule="evenodd"></path>
<path fill="#1D1D1D" d="M9.70831 25.3834C8.67021 25.3834 7.68869 25.7697 6.9763 26.4358C6.26647 27.0996 5.88331 27.9828 5.88331 28.8864C5.88331 30.2047 6.8236 31.5945 8.02527 32.7805C8.59783 33.3457 9.17481 33.8107 9.61041 34.135C9.64397 34.16 9.67662 34.1841 9.7083 34.2073C9.73999 34.1841 9.77264 34.16 9.8062 34.135C10.2418 33.8107 10.8188 33.3457 11.3913 32.7805C12.593 31.5945 13.5333 30.2047 13.5333 28.8864C13.5333 27.9828 13.1502 27.0996 12.4403 26.4358L12.4403 26.4358C11.7279 25.7697 10.7464 25.3834 9.70831 25.3834ZM9.70831 35.5834C9.10876 36.5451 9.1085 36.545 9.10821 36.5448L9.10755 36.5444L9.10588 36.5433L9.10118 36.5404L9.08648 36.5311C9.07435 36.5234 9.0576 36.5127 9.03656 36.499C8.99448 36.4718 8.93513 36.4328 8.86097 36.3827C8.71278 36.2826 8.50474 36.1378 8.25672 35.9531C7.76264 35.5852 7.10003 35.0521 6.43301 34.3938C5.15551 33.1329 3.61664 31.1742 3.61664 28.8864C3.61664 27.3307 4.27826 25.8555 5.42816 24.7802C6.57552 23.7073 8.11633 23.1167 9.70831 23.1167C11.3003 23.1167 12.841 23.7073 13.9884 24.7802M9.70831 35.5834L10.3078 36.5451C9.94089 36.7739 9.47573 36.7739 9.10876 36.5451L9.70831 35.5834ZM13.9884 24.7802C15.1384 25.8555 15.8 27.3307 15.8 28.8864C15.8 31.1742 14.2611 33.1329 12.9836 34.3938C12.3166 35.0521 11.654 35.5852 11.1599 35.9531C10.9119 36.1378 10.7038 36.2826 10.5556 36.3827C10.4815 36.4328 10.4221 36.4718 10.3801 36.499C10.359 36.5127 10.3423 36.5234 10.3301 36.5311L10.3154 36.5404L10.3107 36.5433L10.3091 36.5444L10.3084 36.5448C10.3081 36.545 10.3078 36.5451 9.70831 35.5834" clip-rule="evenodd" fill-rule="evenodd"></path>
<path fill="#1D1D1D" d="M30.93 5.52155C29.8919 5.52155 28.9104 5.90785 28.198 6.574C27.4881 7.23775 27.105 8.12101 27.105 9.0246C27.105 10.3429 28.0453 11.7327 29.247 12.9187C29.8195 13.4839 30.3965 13.9489 30.8321 14.2732C30.8656 14.2982 30.8983 14.3223 30.93 14.3455C30.9617 14.3223 30.9943 14.2982 31.0279 14.2732C31.4635 13.9489 32.0405 13.4839 32.613 12.9187C33.8147 11.7327 34.755 10.3429 34.755 9.0246C34.755 8.121 34.3718 7.23776 33.662 6.57402L33.6619 6.57399C32.9496 5.90785 31.9681 5.52155 30.93 5.52155ZM30.93 15.7215C30.3304 16.6833 30.3302 16.6831 30.3299 16.683L30.3292 16.6826L30.3276 16.6815L30.3229 16.6786L30.3082 16.6693C30.296 16.6616 30.2793 16.6509 30.2582 16.6372C30.2162 16.61 30.1568 16.571 30.0827 16.5209C29.9345 16.4208 29.7264 16.2759 29.4784 16.0913C28.9843 15.7234 28.3217 15.1903 27.6547 14.5319C26.3772 13.271 24.8383 11.3124 24.8383 9.0246C24.8383 7.46886 25.4999 5.99365 26.6498 4.91839C27.7972 3.84551 29.338 3.25488 30.93 3.25488C32.5219 3.25488 34.0627 3.8455 35.2101 4.91836M30.93 15.7215L31.5295 16.6833C31.1626 16.9121 30.6974 16.9121 30.3304 16.6833L30.93 15.7215ZM35.2101 4.91839C36.3601 5.99367 37.0217 7.46889 37.0217 9.0246C37.0217 11.3124 35.4828 13.271 34.2053 14.5319C33.5383 15.1903 32.8757 15.7234 32.3816 16.0913C32.1336 16.2759 31.9255 16.4208 31.7773 16.5209C31.7032 16.571 31.6438 16.61 31.6017 16.6372C31.5807 16.6509 31.5639 16.6616 31.5518 16.6693L31.5371 16.6786L31.5324 16.6815L31.5307 16.6826L31.5301 16.683C31.5298 16.6831 31.5295 16.6833 30.93 15.7215" clip-rule="evenodd" fill-rule="evenodd"></path>
<path fill="#1D1D1D" d="M30.9583 10.0833C31.7407 10.0833 32.375 9.44907 32.375 8.66667C32.375 7.88426 31.7407 7.25 30.9583 7.25C30.1759 7.25 29.5417 7.88426 29.5417 8.66667C29.5417 9.44907 30.1759 10.0833 30.9583 10.0833Z"></path>
<path fill="#1D1D1D" d="M9.70832 29.9166C10.4907 29.9166 11.125 29.2823 11.125 28.4999C11.125 27.7175 10.4907 27.0833 9.70832 27.0833C8.92592 27.0833 8.29166 27.7175 8.29166 28.4999C8.29166 29.2823 8.92592 29.9166 9.70832 29.9166Z"></path>
</g>
</g>
<defs>
<clipPath id="clip0_4418_7834">
<rect transform="translate(3.33331 3)" fill="white" height="34" width="34"></rect>
</clipPath>
<clipPath id="clip1_4418_7834">
<rect transform="translate(3.33331 3)" fill="white" height="34" width="34"></rect>
</clipPath>
</defs>
</svg>
