<?xml version="1.0" encoding="UTF-8" standalone="no"?>
<!-- Created with Inkscape (http://www.inkscape.org/) -->

<svg
   version="1.1"
   id="svg1"
   width="419.70667"
   height="226.62666"
   viewBox="0 0 419.70667 226.62666"
   sodipodi:docname="Norton Secured.eps"
   xmlns:inkscape="http://www.inkscape.org/namespaces/inkscape"
   xmlns:sodipodi="http://sodipodi.sourceforge.net/DTD/sodipodi-0.dtd"
   xmlns="http://www.w3.org/2000/svg"
   xmlns:svg="http://www.w3.org/2000/svg">
  <defs
     id="defs1" />
  <sodipodi:namedview
     id="namedview1"
     pagecolor="#ffffff"
     bordercolor="#000000"
     borderopacity="0.25"
     inkscape:showpageshadow="2"
     inkscape:pageopacity="0.0"
     inkscape:pagecheckerboard="0"
     inkscape:deskcolor="#d1d1d1">
    <inkscape:page
       x="0"
       y="0"
       inkscape:label="1"
       id="page1"
       width="419.70667"
       height="226.62666"
       margin="0"
       bleed="0" />
  </sodipodi:namedview>
  <g
     id="g1"
     inkscape:groupmode="layer"
     inkscape:label="1">
    <g
       id="group-R5">
      <path
         id="path2"
         d="M 575.73,1438.67 C 305.77,1438.67 86.1328,1219.04 86.1328,949.059 86.1328,679.09 305.77,459.441 575.73,459.441 h 2040.73 c 269.94,0 489.59,219.649 489.59,489.618 0,269.981 -219.65,489.611 -489.59,489.611 H 575.73"
         style="fill:#ffffff;fill-opacity:1;fill-rule:nonzero;stroke:none"
         transform="matrix(0.13333333,0,0,-0.13333333,0,226.62667)" />
      <path
         id="path3"
         d="M 575.73,1438.67 C 305.77,1438.67 86.1328,1219.04 86.1328,949.059 86.1328,679.09 305.77,459.441 575.73,459.441 h 2040.73 c 269.94,0 489.59,219.649 489.59,489.618 0,269.981 -219.65,489.611 -489.59,489.611 z M 2616.46,417.73 H 575.73 c -292.96,0 -531.3003,238.372 -531.3003,531.329 0,292.961 238.3403,531.311 531.3003,531.311 h 2040.73 c 292.96,0 531.3,-238.35 531.3,-531.311 0,-292.957 -238.34,-531.329 -531.3,-531.329"
         style="fill:#c8c7c7;fill-opacity:1;fill-rule:nonzero;stroke:none"
         transform="matrix(0.13333333,0,0,-0.13333333,0,226.62667)" />
      <path
         id="path4"
         d="m 2371.67,1029.29 c -40.64,0 -73.62,32.93 -73.62,73.58 0,40.69 32.98,73.63 73.62,73.63 40.64,0 73.63,-32.94 73.63,-73.63 0,-40.65 -32.99,-73.58 -73.63,-73.58 m 0,217.09 c -79.22,0 -143.46,-64.25 -143.46,-143.51 0,-79.22 64.24,-143.417 143.46,-143.417 79.27,0 143.47,64.197 143.47,143.417 0,79.26 -64.2,143.51 -143.47,143.51"
         style="fill:#231f20;fill-opacity:1;fill-rule:nonzero;stroke:none"
         transform="matrix(0.13333333,0,0,-0.13333333,0,226.62667)" />
      <path
         id="path5"
         d="m 1713.66,1029.29 c -40.6,0 -73.57,32.93 -73.57,73.58 0,40.69 32.97,73.63 73.57,73.63 40.69,0 73.63,-32.94 73.63,-73.63 0,-40.65 -32.94,-73.58 -73.63,-73.58 m 0,217.09 c -79.22,0 -143.45,-64.25 -143.45,-143.51 0,-79.22 64.23,-143.417 143.45,-143.417 79.27,0 143.52,64.197 143.52,143.417 0,79.26 -64.25,143.51 -143.52,143.51"
         style="fill:#231f20;fill-opacity:1;fill-rule:nonzero;stroke:none"
         transform="matrix(0.13333333,0,0,-0.13333333,0,226.62667)" />
      <path
         id="path6"
         d="m 2218.96,1025.29 c -9.07,-2.65 -22.95,-5.25 -28.23,-5.25 -24.52,0 -29.86,8.45 -29.86,31.92 v 132.56 h 58.66 v 55.38 h -58.66 v 78.3 h -66 L 2081,1239.9 h -45.98 v -0.04 h -3.74 c -37.6,-0.18 -65.96,-23.12 -84.15,-59.05 l -22.95,59.09 h -47.33 V 964.605 h 80.89 v 119.775 c 0,60.37 35.67,98.94 77.95,100.14 h 44.25 v -136.87 c 0,-64.416 33.02,-88.377 86.79,-88.377 27.75,0 49.02,5.86 61.78,10.09 l -9.55,55.927"
         style="fill:#231f20;fill-opacity:1;fill-rule:nonzero;stroke:none"
         transform="matrix(0.13333333,0,0,-0.13333333,0,226.62667)" />
      <path
         id="path7"
         d="M 2613.15,1152.81 V 964.609 h -78.64 v 275.301 h 47.73 l 15.99,-42.05"
         style="fill:#231f20;fill-opacity:1;fill-rule:nonzero;stroke:none"
         transform="matrix(0.13333333,0,0,-0.13333333,0,226.62667)" />
      <path
         id="path8"
         d="m 2597.88,1197.59 c 23.91,27.75 56.62,48.75 94.94,48.75 65.52,0 92.47,-52.23 92.47,-100.66 V 964.605 h -80.98 v 178.735 c 0,23.61 -19.64,36.41 -40.95,36.41 -22.68,0 -37.26,-12.98 -50.07,-26.86"
         style="fill:#231f20;fill-opacity:1;fill-rule:nonzero;stroke:none"
         transform="matrix(0.13333333,0,0,-0.13333333,0,226.62667)" />
      <path
         id="path9"
         d="m 1254.68,1339.55 h 90.14 L 1468.6,1103.8 v 235.75 h 74.66 V 964.555 h -81.67 L 1329.37,1223.79 V 964.555 h -74.69 v 374.995"
         style="fill:#231f20;fill-opacity:1;fill-rule:nonzero;stroke:none"
         transform="matrix(0.13333333,0,0,-0.13333333,0,226.62667)" />
      <path
         id="path10"
         d="m 3024.18,1480.36 v -13.43 h -19.64 v -66.05 h -15.33 v 66.05 h -19.28 v 13.43 h 54.25"
         style="fill:#a7a5a6;fill-opacity:1;fill-rule:nonzero;stroke:none"
         transform="matrix(0.13333333,0,0,-0.13333333,0,226.62667)" />
      <path
         id="path11"
         d="m 3035.18,1400.88 v 79.48 h 20.74 l 13.78,-52.06 14.01,52.06 h 20.96 v -79.48 h -12.64 v 62.17 h -0.36 l -16.06,-62.17 h -11.23 l -16.21,62.17 h -0.35 v -62.17 h -12.64"
         style="fill:#a7a5a6;fill-opacity:1;fill-rule:nonzero;stroke:none"
         transform="matrix(0.13333333,0,0,-0.13333333,0,226.62667)" />
      <path
         id="path12"
         d="m 1232.18,632.25 18.71,29.102 c 15.2,-11.231 38.01,-21.661 65.83,-21.661 27.04,0 43.73,12.25 43.73,33.52 0,24.469 -21.09,30.945 -55.75,43.008 -31.08,10.918 -61.64,26.597 -61.64,70.629 0,41.257 32.54,63.73 76.31,63.73 29.1,0 50.54,-5.73 67.81,-15.902 l -14.97,-30.957 c -14.49,7.527 -31.8,12.636 -52.14,12.636 -24.39,0 -39.01,-9.199 -39.01,-28.539 0,-22.718 16.95,-28.488 48.83,-38.968 33.25,-10.782 69.84,-26.16 69.84,-74.938 0,-41.269 -29.5,-68.48 -82.43,-68.48 -39.28,0 -68.13,13.558 -85.12,26.82"
         style="fill:#a7a5a6;fill-opacity:1;fill-rule:nonzero;stroke:none"
         transform="matrix(0.13333333,0,0,-0.13333333,0,226.62667)" />
      <path
         id="path13"
         d="m 1470.71,846.828 h 141.72 v -32.941 h -101.39 v -65.039 h 80.07 v -32.231 h -80.07 v -75.168 h 107.55 v -32.89 h -147.88 v 238.269"
         style="fill:#a7a5a6;fill-opacity:1;fill-rule:nonzero;stroke:none"
         transform="matrix(0.13333333,0,0,-0.13333333,0,226.62667)" />
      <path
         id="path14"
         d="m 1676.28,727.492 c 0,69.528 33.29,123.028 99.74,123.028 29.76,0 53.28,-9.418 69.84,-28.707 l -23.52,-27.211 c -14.22,13.918 -26.28,20.738 -45.66,20.738 -39.01,0 -57.02,-31.918 -57.02,-90.891 0,-55.347 19.01,-83.398 57.37,-83.398 21.31,0 36.28,11.187 49.41,25.097 l 23.74,-26.457 c -17.27,-20.39 -38.89,-34.261 -73.5,-34.261 -68.52,0 -100.4,52.23 -100.4,122.062"
         style="fill:#a7a5a6;fill-opacity:1;fill-rule:nonzero;stroke:none"
         transform="matrix(0.13333333,0,0,-0.13333333,0,226.62667)" />
      <path
         id="path15"
         d="m 1915.87,699.746 v 147.082 h 40.64 V 693.191 c 0,-32.761 8.11,-54.203 42.68,-54.203 34.26,0 42.75,21.442 42.75,54.203 v 153.637 h 41.04 V 699.746 c 0,-59.035 -22.72,-94.316 -84.1,-94.316 -60.37,0 -83.01,35.281 -83.01,94.316"
         style="fill:#a7a5a6;fill-opacity:1;fill-rule:nonzero;stroke:none"
         transform="matrix(0.13333333,0,0,-0.13333333,0,226.62667)" />
      <path
         id="path16"
         d="m 2240.1,740.703 c 30.21,0 45.75,9.82 45.75,37.34 0,26.461 -15.85,35.891 -43.38,35.891 h -38.3 v -73.231 z m 91.55,-132.191 h -44.08 l -45.75,101.062 h -37.65 V 608.512 h -40.34 v 238.312 h 77.73 c 48.12,0 85.69,-17.261 85.69,-69.48 0,-35.629 -21.36,-53.512 -45.14,-62.012 l 49.54,-106.82"
         style="fill:#a7a5a6;fill-opacity:1;fill-rule:nonzero;stroke:none"
         transform="matrix(0.13333333,0,0,-0.13333333,0,226.62667)" />
      <path
         id="path17"
         d="m 2400.64,846.828 h 141.71 v -32.941 h -101.42 v -65.039 h 79.97 v -32.231 h -79.97 v -75.168 h 107.49 v -32.89 h -147.78 v 238.269"
         style="fill:#a7a5a6;fill-opacity:1;fill-rule:nonzero;stroke:none"
         transform="matrix(0.13333333,0,0,-0.13333333,0,226.62667)" />
      <path
         id="path18"
         d="m 2673.7,641.449 c 55.63,0 74.65,25.672 74.65,87.098 0,53.898 -14.93,85.391 -69.63,85.391 h -21.66 V 641.449 Z m -57.15,205.375 h 59.49 c 77.68,0 115.01,-42.047 115.01,-118.277 0,-77.668 -37.99,-120.027 -112.95,-120.027 h -61.55 v 238.304"
         style="fill:#a7a5a6;fill-opacity:1;fill-rule:nonzero;stroke:none"
         transform="matrix(0.13333333,0,0,-0.13333333,0,226.62667)" />
      <path
         id="path19"
         d="m 573.289,1340.97 c -104.629,0 -203.051,-40.78 -277.16,-114.8 -74.02,-74.06 -114.789,-172.48 -114.789,-277.111 0,-104.61 40.769,-203.032 114.789,-277.137 74.062,-73.973 172.48,-114.75 277.16,-114.793 104.621,0.043 203.039,40.82 277.152,114.84 73.93,74.058 114.707,172.48 114.75,277.09 -0.043,104.631 -40.82,203.051 -114.793,277.151 -74.109,73.98 -172.527,114.76 -277.109,114.76 m 0,-965.189 C 257.211,375.781 0,632.988 0,949.059 0,1265.14 257.211,1522.3 573.289,1522.3 889.328,1522.3 1146.48,1265.14 1146.53,949.059 1146.48,632.988 889.328,375.781 573.289,375.781"
         style="fill:#fbbc09;fill-opacity:1;fill-rule:nonzero;stroke:none"
         transform="matrix(0.13333333,0,0,-0.13333333,0,226.62667)" />
      <path
         id="path20"
         d="m 1242.43,1610.59 h -44.69 v -44.7 h 44.69 v 44.7"
         style="fill:#fbbc09;fill-opacity:1;fill-rule:nonzero;stroke:none"
         transform="matrix(0.13333333,0,0,-0.13333333,0,226.62667)" />
      <path
         id="path21"
         d="m 1242.43,1699.67 h -44.69 v -44.79 h 44.69 v 44.79"
         style="fill:#fbbc09;fill-opacity:1;fill-rule:nonzero;stroke:none"
         transform="matrix(0.13333333,0,0,-0.13333333,0,226.62667)" />
      <path
         id="path22"
         d="m 1113.72,1566.21 h -41.74 v -43.64 h 41.74 v 43.64"
         style="fill:#fbbc09;fill-opacity:1;fill-rule:nonzero;stroke:none"
         transform="matrix(0.13333333,0,0,-0.13333333,0,226.62667)" />
      <path
         id="path23"
         d="m 1031.33,1480.51 h -42.096 v -41.74 h 42.096 v 41.74"
         style="fill:#231f20;fill-opacity:1;fill-rule:nonzero;stroke:none"
         transform="matrix(0.13333333,0,0,-0.13333333,0,226.62667)" />
      <path
         id="path24"
         d="m 1160.52,1522.56 h -46.81 v -42.05 h 46.81 v 42.05"
         style="fill:#231f20;fill-opacity:1;fill-rule:nonzero;stroke:none"
         transform="matrix(0.13333333,0,0,-0.13333333,0,226.62667)" />
      <path
         id="path25"
         d="m 947.313,1480.51 h 41.921 v 39.99 h -41.921 v -39.99"
         style="fill:#231f20;fill-opacity:1;fill-rule:nonzero;stroke:none"
         transform="matrix(0.13333333,0,0,-0.13333333,0,226.62667)" />
      <path
         id="path26"
         d="m 1113.72,1480.51 h -41.74 v -41.74 h 41.74 v 41.74"
         style="fill:#231f20;fill-opacity:1;fill-rule:nonzero;stroke:none"
         transform="matrix(0.13333333,0,0,-0.13333333,0,226.62667)" />
      <path
         id="path27"
         d="m 1197.74,1654.89 h -44.22 v -44.3 h 44.22 v 44.3"
         style="fill:#231f20;fill-opacity:1;fill-rule:nonzero;stroke:none"
         transform="matrix(0.13333333,0,0,-0.13333333,0,226.62667)" />
      <path
         id="path28"
         d="m 1153.52,1610.59 h -81.54 v -44.38 h 81.54 v 44.38"
         style="fill:#231f20;fill-opacity:1;fill-rule:nonzero;stroke:none"
         transform="matrix(0.13333333,0,0,-0.13333333,0,226.62667)" />
      <path
         id="path29"
         d="m 1031.33,1480.51 h 40.64 v 85.69 h -40.64 v -85.69"
         style="fill:#231f20;fill-opacity:1;fill-rule:nonzero;stroke:none"
         transform="matrix(0.13333333,0,0,-0.13333333,0,226.62667)" />
      <path
         id="path30"
         d="m 1031.34,1438.77 v -42.06 h -42.102 v 42.06 h -69.84 v -30.3 h -37.429 v -37.38 h 41.789 v -41.66 h -41.789 v 41.66 h -44.434 v -65.35 h -42.008 v -41.7 h -27.871 v -41.88 h -30.66 C 702.566,1170.95 616.258,1011.32 590.195,946.328 496.137,1077.2 423.129,1129.07 365.617,1147.83 c -31,9.34 -68.379,-24.44 -16.871,-77.59 118.32,-130.119 155.582,-237.861 191.551,-323.81 19.031,-45.321 104.32,-52.371 121.449,-6.211 36.422,97.531 89.223,207.121 151.75,297.131 v 46.63 h 33.383 v 42.06 h 35.09 v 48.74 h 41.918 v 46.99 h -42.399 v 42.71 h 42.399 v -42.71 h 41.48 l -0.082,42.27 h 33.242 v 51.03 h 37.433 v 35.1 h 36.02 v 88.6 h -40.64"
         style="fill:#231f20;fill-opacity:1;fill-rule:nonzero;stroke:none"
         transform="matrix(0.13333333,0,0,-0.13333333,0,226.62667)" />
      <path
         id="path31"
         d="m 332.352,110.531 v 0.508 c 0,26.441 -17.899,43.832 -39.168,43.832 -21.274,0 -39.954,-17.641 -39.954,-43.832 v -0.508 c 0,-26.4607 18.68,-43.8708 39.954,-43.8708 21.507,0 39.168,16.8789 39.168,43.8708 m -109.719,68.731 h 31.39 V 156.41 c 10.11,14.281 24.368,25.699 46.43,25.699 32.418,0 63.801,-25.699 63.801,-71.07 v -0.508 c 0,-45.4099 -31.133,-71.0701 -63.801,-71.0701 -22.562,0 -36.832,11.3985 -46.43,24.1172 V 0.78125 h -31.39 V 179.262"
         style="fill:#a7a5a6;fill-opacity:1;fill-rule:nonzero;stroke:none"
         transform="matrix(0.13333333,0,0,-0.13333333,0,226.62667)" />
      <path
         id="path32"
         d="m 504.492,110 v 0.531 c 0,24.117 -17.383,44.078 -42.019,44.078 -25.184,0 -41.25,-19.711 -41.25,-43.57 v -0.508 c 0,-23.8708 17.379,-44.1208 41.757,-44.1208 25.422,0 41.512,19.9804 41.512,43.5898 m -114.672,0 v 0.531 c 0,39.141 31.141,71.578 73.16,71.578 42.02,0 72.891,-31.91 72.891,-71.07 v -0.508 c 0,-38.9294 -31.121,-71.3513 -73.398,-71.3513 -41.774,0 -72.653,31.8906 -72.653,70.8203"
         style="fill:#a7a5a6;fill-opacity:1;fill-rule:nonzero;stroke:none"
         transform="matrix(0.13333333,0,0,-0.13333333,0,226.62667)" />
      <path
         id="path33"
         d="m 551.016,179.262 h 32.179 l 27.481,-93.9339 30.347,94.4419 h 26.719 l 30.602,-94.4419 28.019,93.9339 h 31.379 L 712.883,41.25 H 684.855 L 654.266,134.898 623.375,41.25 h -27.992 l -44.367,138.012"
         style="fill:#a7a5a6;fill-opacity:1;fill-rule:nonzero;stroke:none"
         transform="matrix(0.13333333,0,0,-0.13333333,0,226.62667)" />
      <path
         id="path34"
         d="m 875.293,120.371 c -2.07,20.231 -14,36.039 -34.762,36.039 -19.199,0 -32.668,-14.789 -35.527,-36.039 z M 773.863,110.25 v 0.531 c 0,39.16 27.77,71.328 66.93,71.328 43.578,0 65.629,-34.238 65.629,-73.687 0,-2.844 -0.262,-5.692 -0.512,-8.8126 H 805.262 c 3.371,-22.2891 19.179,-34.75 39.422,-34.75 15.308,0 26.207,5.6914 37.089,16.332 l 18.411,-16.332 C 887.223,49.3008 869.32,39.1797 844.172,39.1797 c -39.692,0 -70.309,28.8086 -70.309,71.0703"
         style="fill:#a7a5a6;fill-opacity:1;fill-rule:nonzero;stroke:none"
         transform="matrix(0.13333333,0,0,-0.13333333,0,226.62667)" />
      <path
         id="path35"
         d="M 939.109,179.262 H 970.5 v -30.864 c 8.551,20.473 24.371,34.473 48.49,33.461 v -33.211 h -1.8 c -27.51,0 -46.69,-17.91 -46.69,-54.2261 V 42.2891 H 939.109 V 179.262"
         style="fill:#a7a5a6;fill-opacity:1;fill-rule:nonzero;stroke:none"
         transform="matrix(0.13333333,0,0,-0.13333333,0,226.62667)" />
      <path
         id="path36"
         d="m 1138.64,120.371 c -2.07,20.231 -14,36.039 -34.76,36.039 -19.2,0 -32.67,-14.789 -35.51,-36.039 z M 1037.21,110.25 v 0.531 c 0,39.16 27.78,71.328 66.94,71.328 43.58,0 65.62,-34.238 65.62,-73.687 0,-2.844 -0.26,-5.692 -0.5,-8.8126 h -100.66 c 3.38,-22.2891 19.2,-34.75 39.42,-34.75 15.32,0 26.22,5.6914 37.1,16.332 l 18.42,-16.332 c -12.98,-15.5586 -30.87,-25.6797 -56.02,-25.6797 -39.69,0 -70.32,28.8086 -70.32,71.0703"
         style="fill:#a7a5a6;fill-opacity:1;fill-rule:nonzero;stroke:none"
         transform="matrix(0.13333333,0,0,-0.13333333,0,226.62667)" />
      <path
         id="path37"
         d="m 1306,110.531 v 0.508 c 0,26.441 -18.68,43.832 -39.68,43.832 -21.53,0 -39.43,-16.609 -39.43,-43.832 v -0.508 c 0,-26.4607 18.15,-43.8708 39.43,-43.8708 21,0 39.68,17.6601 39.68,43.8708 m -110.76,0 v 0.508 c 0,45.371 30.86,71.07 63.54,71.07 22.56,0 36.83,-11.418 46.7,-24.121 v 73.672 h 31.4 V 42.2891 h -31.4 v 22.832 c -10.12,-14.2617 -24.39,-25.6602 -46.7,-25.6602 -32.16,0 -63.54,25.6602 -63.54,71.0701"
         style="fill:#a7a5a6;fill-opacity:1;fill-rule:nonzero;stroke:none"
         transform="matrix(0.13333333,0,0,-0.13333333,0,226.62667)" />
      <path
         id="path38"
         d="m 1563.47,110.531 v 0.508 c 0,26.441 -17.91,43.832 -39.17,43.832 -21.28,0 -39.95,-17.641 -39.95,-43.832 v -0.508 c 0,-26.4607 18.67,-43.8708 39.95,-43.8708 21.52,0 39.17,16.8789 39.17,43.8708 m -78.34,-46.9529 v -21.289 h -31.39 V 231.66 h 31.39 v -75.25 c 10.11,14.281 24.38,25.699 46.43,25.699 32.42,0 63.81,-25.699 63.81,-71.07 v -0.508 c 0,-45.4099 -31.14,-71.0701 -63.81,-71.0701 -22.56,0 -36.83,11.3985 -46.43,24.1172"
         style="fill:#a7a5a6;fill-opacity:1;fill-rule:nonzero;stroke:none"
         transform="matrix(0.13333333,0,0,-0.13333333,0,226.62667)" />
      <path
         id="path39"
         d="m 1616.75,8.32031 10.61,23.33989 c 5.72,-3.1289 11.93,-5.1993 18.42,-5.1993 8.84,0 14.27,3.9102 19.45,15.8204 l -57.05,136.9807 h 33.44 l 38.93,-101.6839 35.54,101.6839 h 32.67 L 1694.29,38.3984 C 1683.41,10.3906 1671.21,0 1649.15,0 c -13.2,0 -22.8,3.12109 -32.4,8.32031"
         style="fill:#a7a5a6;fill-opacity:1;fill-rule:nonzero;stroke:none"
         transform="matrix(0.13333333,0,0,-0.13333333,0,226.62667)" />
      <path
         id="path40"
         d="m 1841.52,223.871 h 35.26 l 54.75,-139.5507 54.45,139.5507 h 34.51 L 1945.02,41 h -28 l -75.5,182.871"
         style="fill:#a20641;fill-opacity:1;fill-rule:nonzero;stroke:none"
         transform="matrix(0.13333333,0,0,-0.13333333,0,226.62667)" />
      <path
         id="path41"
         d="m 2128.34,120.371 c -2.07,20.231 -14,36.039 -34.75,36.039 -19.2,0 -32.67,-14.789 -35.53,-36.039 z M 2026.92,110.25 v 0.531 c 0,39.16 27.76,71.328 66.94,71.328 43.58,0 65.61,-34.238 65.61,-73.687 0,-2.844 -0.26,-5.692 -0.51,-8.8126 h -100.64 c 3.38,-22.2891 19.2,-34.75 39.41,-34.75 15.33,0 26.21,5.6914 37.09,16.332 l 18.44,-16.332 c -12.99,-15.5586 -30.87,-25.6797 -56.04,-25.6797 -39.69,0 -70.3,28.8086 -70.3,71.0703"
         style="fill:#a20641;fill-opacity:1;fill-rule:nonzero;stroke:none"
         transform="matrix(0.13333333,0,0,-0.13333333,0,226.62667)" />
      <path
         id="path42"
         d="m 2192.16,179.262 h 31.39 v -30.864 c 8.56,20.473 24.39,34.473 48.52,33.461 v -33.211 h -1.82 c -27.5,0 -46.7,-17.91 -46.7,-54.2261 V 42.2891 h -31.39 V 179.262"
         style="fill:#a20641;fill-opacity:1;fill-rule:nonzero;stroke:none"
         transform="matrix(0.13333333,0,0,-0.13333333,0,226.62667)" />
      <path
         id="path43"
         d="m 2299.01,179.262 h 31.4 V 42.2891 h -31.4 z m -1.29,50.816 h 33.7 v -29.797 h -33.7 v 29.797"
         style="fill:#a20641;fill-opacity:1;fill-rule:nonzero;stroke:none"
         transform="matrix(0.13333333,0,0,-0.13333333,0,226.62667)" />
      <path
         id="path44"
         d="m 2362.96,68.7305 19.2,22.8476 c 17.39,-15.0586 34.76,-23.5898 57.32,-23.5898 19.73,0 32.18,9.0625 32.18,22.8125 v 0.5273 c 0,12.9529 -7.27,19.9809 -40.98,27.7309 -38.66,9.339 -60.45,20.742 -60.45,54.222 v 0.528 c 0,31.132 25.92,52.652 61.99,52.652 26.46,0 47.47,-8.039 65.88,-22.832 L 2481,179.531 c -16.35,12.188 -32.71,18.668 -49.31,18.668 -18.67,0 -29.54,-9.609 -29.54,-21.539 v -0.531 c 0,-14 8.27,-20.231 43.07,-28.527 38.37,-9.34 58.34,-23.071 58.34,-53.1918 v -0.4805 c 0,-34.0078 -26.73,-54.2188 -64.87,-54.2188 -27.74,0 -53.93,9.5899 -75.73,29.0196"
         style="fill:#a20641;fill-opacity:1;fill-rule:nonzero;stroke:none"
         transform="matrix(0.13333333,0,0,-0.13333333,0,226.62667)" />
      <path
         id="path45"
         d="m 2539.47,179.262 h 31.37 V 42.2891 h -31.37 z m -1.31,50.816 h 33.73 v -29.797 h -33.73 v 29.797"
         style="fill:#a20641;fill-opacity:1;fill-rule:nonzero;stroke:none"
         transform="matrix(0.13333333,0,0,-0.13333333,0,226.62667)" />
      <path
         id="path46"
         d="m 2714.34,117.27 v 0.531 c 0,22.539 -18.4,37.871 -40.2,37.871 -21.79,0 -38.91,-15.063 -38.91,-37.641 v -0.511 c 0,-22.5708 17.38,-37.8716 38.91,-37.8716 21.8,0 40.2,15.5508 40.2,37.6216 m -104,-100.6606 11.67,23.5898 c 14.53,-9.0586 30.1,-14.4883 48.77,-14.4883 28.02,0 43.3,14.4883 43.3,42.0079 v 10.621 c -11.4,-14.7617 -25.67,-25.1484 -48.22,-25.1484 -32.18,0 -62.26,23.8672 -62.26,64.0786 v 0.531 c 0,40.449 30.34,64.308 62.26,64.308 23.08,0 37.35,-10.64 47.98,-23.339 v 20.492 h 31.37 V 70.3203 c 0,-23.0898 -5.94,-40.1992 -17.36,-51.6211 C 2715.4,6.25 2696.21,0.261719 2671.55,0.261719 c -22.55,0 -43.58,5.718751 -61.21,16.347681"
         style="fill:#a20641;fill-opacity:1;fill-rule:nonzero;stroke:none"
         transform="matrix(0.13333333,0,0,-0.13333333,0,226.62667)" />
      <path
         id="path47"
         d="m 2785.55,179.262 h 31.38 v -21.274 c 8.84,12.953 21.51,24.121 42.8,24.121 30.87,0 48.76,-20.757 48.76,-52.648 V 42.2891 h -31.39 v 77.8319 c 0,21.27 -10.63,33.457 -29.3,33.457 -18.18,0 -30.87,-12.719 -30.87,-33.988 V 42.2891 h -31.38 V 179.262"
         style="fill:#a20641;fill-opacity:1;fill-rule:nonzero;stroke:none"
         transform="matrix(0.13333333,0,0,-0.13333333,0,226.62667)" />
    </g>
  </g>
</svg>
